<svg width="100%" height="100%" preserveAspectRatio="none" viewBox="0 0 1927 691" fill="none" xmlns="http://www.w3.org/2000/svg">
<path fill-rule="evenodd" clip-rule="evenodd" d="M0 0V381.693C271.435 724.653 610.231 678.963 792.851 590.531C1280 354.635 1264.37 813.085 1642.58 590.531C1767.94 516.767 1908.03 437.68 1923 422.961V0H1816.22C1709.44 0 1495.89 0 1282.33 0C1068.78 0 854.223 0.00910466 640.667 0C427.112 0 213.556 0 106.778 0H0Z" fill="#E03F8D"/>
<path fill-rule="evenodd" clip-rule="evenodd" d="M3.99219 17.874V379.675C885.662 886.241 1008.61 641.402 1141.13 560.268C1403.59 399.58 1664.55 909.629 1927 429.436V17.874H1820.22C1713.44 17.874 1499.89 17.874 1286.33 17.874C1072.77 17.874 858.219 17.8832 644.662 17.874C431.106 17.874 217.549 17.874 110.771 17.874H3.99219Z" fill="#B14A69"/>
<path fill-rule="evenodd" clip-rule="evenodd" d="M0 0V386.085C740.5 906.961 990.207 553.28 1123 472.158C1389.5 309.357 1589 899.1 1927 492.059V0H1820C1713 0 1499 0 1285 0C1071 0 856 0.00922033 642 0C428 0 214 0 107 0H0Z" fill="#98314F"/>
</svg>
