<svg xmlns="http://www.w3.org/2000/svg" height="1000" width="1000" version="1.1" xmlns:xlink="http://www.w3.org/1999/xlink" xmlns:svgjs="http://svgjs.com/svgjs"><rect fill="#effaff" width="1000" height="1000"></rect><g><path d="M374.5 405.78L351.43 399.8 344.73 341.98 344.73 341.98 323.06 341.98 314.16 398.05 319.29 451.55 375.53 450.29Z" fill="#effaff" opacity="1" stroke-width="2" stroke="#000000"></path><path d="M742.24 380.51C734.11 372.38 722.01 370.67 712.21 375.3L708.66 424.17 738.83 421.38 742.24 417.97C752.59 407.63 752.59 390.85 742.24 380.51Z" fill="#effaff" opacity="1" stroke-width="2" stroke="#000000"></path><path d="M704.79 380.51L703.13 382.18 700.07 424.17 712.21 421.38V375.3C709.51 376.56 706.99 378.31 704.79 380.51Z" fill="#effaff" opacity="1" stroke-width="2" stroke="#000000"></path><path d="M694.27 391.03L689.59 407.72 691.89 424.71 703.13 421.38 703.13 382.18Z" fill="#effaff" opacity="1" stroke-width="2" stroke="#000000"></path><path d="M694.27 421.38L688.87 435.59 714.86 437.97 726.15 434.06 738.87 421.38Z" fill="#effaff" opacity="1" stroke-width="2" stroke="#000000"></path><path d="M712.66 437.97L716.03 444.22 726.15 434.06 716.03 434.06Z" fill="#effaff" opacity="1" stroke-width="2" stroke="#000000"></path><path d="M638.02 447.28L635.86 454.97 686.27 456.27 694.27 452.27 697.51 444.22 694.27 434.06 694.27 391.03Z" fill="#effaff" opacity="1" stroke-width="2" stroke="#000000"></path><path d="M694.27 434.06L694.27 452.27 696.02 457.71 701.1 459.11 716.03 444.22 716.03 434.06Z" fill="#effaff" opacity="1" stroke-width="2" stroke="#000000"></path><path d="M683.88 452.27L678.94 477.14 692.52 481.54 701.1 475.83 701.1 459.11 694.27 452.27Z" fill="#effaff" opacity="1" stroke-width="2" stroke="#000000"></path><path d="M638.02 452.27L633.12 479.79 659.69 482.94 683.88 475.83 683.88 452.27Z" fill="#effaff" opacity="1" stroke-width="2" stroke="#000000"></path><path d="M683.88 492.2L701.1 487.43 701.1 475.83 688.42 475.83Z" fill="#effaff" opacity="1" stroke-width="2" stroke="#000000"></path><path d="M660.32 475.83L654.97 490.99 674.4 494.67 688.42 487.43 688.42 475.83Z" fill="#effaff" opacity="1" stroke-width="2" stroke="#000000"></path><path d="M638.02 475.83L622.38 487.43 622.38 509.55 655.74 513.51 660.32 487.43 660.32 475.83Z" fill="#effaff" opacity="1" stroke-width="2" stroke="#000000"></path><path d="M659.38 487.43C655.38 487.43 652.1 490.67 652.1 494.72V507.08H629.79L624.04 515.31 629.79 522.82 666.17 535.5 701.06 522.82C701.1 522.23 701.15 521.65 701.15 521.06V487.43L701.15 487.43H659.38Z" fill="#effaff" stroke-linejoin="round" opacity="1" stroke-width="2" stroke="#000000"></path><path d="M638.02 447.28L614.78 470.53 614.78 462.3 607.36 458.3 600.43 462.3 594.95 478.22 600.43 493.14 614.78 498.76 629.79 493.14 638.02 493.14Z" fill="#effaff" stroke-linejoin="round" opacity="1" stroke-width="2" stroke="#000000"></path><path d="M580.52 462.3L574.63 462.3 570.76 513.51 607.09 505.15 600.43 493.14 600.43 462.3 591.53 456.27Z" fill="#effaff" opacity="1" stroke-width="2" stroke="#000000"></path><path d="M600.43 493.14L600.43 503.71 574.63 503.71 569.77 512.7 573.59 529.97 629.79 522.86 629.79 493.14 615.81 493.14Z" fill="#effaff" opacity="1" stroke-width="2" stroke="#000000"></path><path d="M615.95 544.85L629.79 522.86 574.63 522.86 566.31 518.32 557.5 522.86 554.48 543.55Z" fill="#effaff" opacity="1" stroke-width="2" stroke="#000000"></path><path d="M610.46 542.2L620.13 552.45 677.09 553.89 694.99 535.99C698.54 532.44 700.65 527.81 701.1 522.86H629.84L610.46 542.2Z" fill="#effaff" stroke-linejoin="round" opacity="1" stroke-width="2" stroke="#000000"></path><path d="M657.63 542.2H621.21L621.21 542.2 632.94 564.5 654.97 575.96 677.05 553.89 670.8 547.64C667.34 544.13 662.57 542.2 657.63 542.2Z" fill="#effaff" opacity="1" stroke-width="2" stroke="#000000"></path><path d="M603.81 542.2L596.34 565.04 603.81 590.76 621.84 593.72 640.18 590.76 654.97 575.96 638.02 559.01 621.21 542.2Z" fill="#effaff" opacity="1" stroke-width="2" stroke="#000000"></path><path d="M583.84 585.94L587.84 599.66H623L664.82 641.47C668.42 645.07 674.22 645.07 677.81 641.47 681.41 637.88 681.41 632.08 677.81 628.48L640.14 590.8H603.76L583.84 585.94Z" fill="#effaff" opacity="1" stroke-width="2" stroke="#000000"></path><path d="M603.81 590.76L603.81 542.2 569.77 542.2 575.57 542.2 566.8 570.93 575.57 599.66 587.84 599.66 587.84 590.76Z" fill="#effaff" opacity="1" stroke-width="2" stroke="#000000"></path><path d="M557.5 542.2L557.5 542.2 541.85 538.38 537.53 591.7 563.61 599.66 575.57 599.66 575.57 542.2Z" fill="#effaff" opacity="1" stroke-width="2" stroke="#000000"></path><path d="M574.63 462.3L569.77 462.3 569.77 455.24 545.72 446.47 529.48 507.98 557.5 522.86 574.63 522.86Z" fill="#effaff" stroke-linejoin="round" opacity="1" stroke-width="2" stroke="#000000"></path><path d="M541.85 503.93L541.85 474.75 494.77 468.95 502.33 522.86 531.15 535.54 557.5 522.86 557.5 503.93Z" fill="#effaff" opacity="1" stroke-width="2" stroke="#000000"></path><path d="M614.78 462.3V429.16C614.78 423.18 609.92 418.33 603.94 418.33H591.31C585.33 418.33 580.47 423.18 580.47 429.16V462.3L580.47 462.3H614.78Z" fill="#effaff" stroke-linecap="round" stroke-linejoin="round" opacity="1" stroke-width="2" stroke="#000000"></path><path d="M541.85 469.27L550.93 469.27 550.93 455.24 546.84 434.69 492.21 445.71 502.33 474.75 541.85 474.75Z" fill="#effaff" opacity="1" stroke-width="2" stroke="#000000"></path><path d="M548.77 431.41L545.89 397.19 547.74 396.92C551.29 395.85 553.9 392.61 553.9 388.7 553.9 383.93 550.03 380.06 545.27 380.06H502.33L489.38 394.59V435.41L502.33 447.51H541.85L548.77 431.41Z" fill="#effaff" opacity="1" stroke-width="2" stroke="#000000"></path><path d="M569.77 455.27V419.57L555.52 397.18H546.57C546.12 397.27 536.59 397.18 536.59 397.18H527.78V432.25H541.85V447.45 455.23H569.77Z" fill="#effaff" stroke-linecap="round" stroke-linejoin="round" opacity="1" stroke-width="2" stroke="#000000"></path><path d="M561.68 419.54H569.77V408.57H590.68C593.82 408.57 596.39 406.01 596.39 402.86S593.82 397.15 590.68 397.15H555.52V413.38C555.52 416.8 558.26 419.54 561.68 419.54Z" fill="#effaff" stroke-linejoin="round" opacity="1" stroke-width="2" stroke="#000000"></path><path d="M512.35 582.03L547.96 568.41 547.96 558.52 547.96 542.2 557.5 542.2 557.5 522.86 502.33 522.86 490.55 550.11Z" fill="#effaff" opacity="1" stroke-width="2" stroke="#000000"></path><path d="M547.96 590.76L547.96 568.41 515.73 568.41 501.11 581.54 515.73 599.66 563.61 599.66 563.61 590.76Z" fill="#effaff" opacity="1" stroke-width="2" stroke="#000000"></path><path d="M425.35 472.69L457.23 495.48 502.33 483.66 502.33 447.51 432.77 433.43Z" fill="#effaff" opacity="1" stroke-width="2" stroke="#000000"></path><path d="M502.33 412.62L468.74 400.21 436.59 412.62 426.75 429.61 436.59 447.51 502.33 447.51Z" fill="#effaff" opacity="1" stroke-width="2" stroke="#000000"></path><path d="M502.33 380.06L436.59 380.06 423.46 403.26 436.59 412.62 502.33 412.62Z" fill="#effaff" opacity="1" stroke-width="2" stroke="#000000"></path><path d="M451.16 483.66L441.54 494.09 454.89 515.35 502.33 504.56 502.33 483.66Z" fill="#effaff" opacity="1" stroke-width="2" stroke="#000000"></path><path d="M436.59 409.24L404.13 399.26 371.67 409.24 371.67 447.51 380.08 467.56 426.75 467.56 436.59 447.51Z" fill="#effaff" opacity="1" stroke-width="2" stroke="#000000"></path><path d="M451.16 471.61L436.59 471.61 436.59 447.51 378.14 447.51 370.45 474.75 378.14 504.56 418.29 518.23 451.16 504.56Z" fill="#effaff" opacity="1" stroke-width="2" stroke="#000000"></path><path d="M502.33 504.56L451.16 504.56 451.16 504.56 451.16 504.56 432.77 504.56 421.08 524.26 457.45 566.48 502.33 556.14 502.33 556.14Z" fill="#effaff" opacity="1" stroke-width="2" stroke="#000000"></path><path d="M461.55 556.14V521.87H432.82C432.82 521.87 417.17 542.15 409.66 551.28L407.02 569.23V597.02C407.02 603.09 411.92 607.99 417.99 607.99H424.33C430.4 607.99 435.3 603.09 435.3 597.02H455.71V630.47C455.71 638.56 462.28 645.08 470.33 645.08 478.42 645.08 484.94 638.52 484.94 630.47V630.37L487.28 628.03 490.96 624.34 494.43 620.88 515.69 599.61 515.69 599.61V556.09H461.55Z" fill="#effaff" stroke-linecap="round" stroke-linejoin="round" opacity="1" stroke-width="2" stroke="#000000"></path><path d="M421.53 569.35C427.73 569.35 432.77 564.32 432.77 558.11V504.56H378.14L367.17 534.87 378.14 569.35H406.96 406.96 421.53Z" fill="#effaff" opacity="1" stroke-width="2" stroke="#000000"></path><path d="M426.88 380.06H394.24 355.35 354.9 355.35C365.87 380.06 374.41 371.52 374.41 361 374.41 350.48 365.87 341.94 355.35 341.94H344.78V409.2H371.71 436.64V380.02H426.88Z" fill="#effaff" opacity="1" stroke-width="2" stroke="#000000"></path><path d="M335.29 447.51L326.12 472.01 333.63 521.87 378.14 504.56 378.14 447.51Z" fill="#effaff" opacity="1" stroke-width="2" stroke="#000000"></path><path d="M335.29 504.56L311.1 515.35 316.69 569.25 378.14 569.35 378.14 504.56Z" fill="#effaff" opacity="1" stroke-width="2" stroke="#000000"></path><path d="M326.12 492.87L310.43 443.78C310.43 443.78 258.54 430.6 250.04 429.61V465.94 473.9 484.02C250.04 509.46 270.68 530.1 296.13 530.1 289.43 530.1 283.99 535.54 283.99 542.24V557.12C283.99 563.82 289.43 569.26 296.13 569.26H319.29L319.29 569.26V515.35L326.12 492.87Z" fill="#effaff" opacity="1" stroke-width="2" stroke="#000000"></path><path d="M323.06 398.05L283.5 379.61C272.3 379.61 259.4 377.82 250 377.82V425.43 425.43 429.66C250 440.85 259.08 447.51 270.28 447.51H294.56L309.57 454.66 323.11 447.51V398.05L323.06 398.05Z" fill="#effaff" stroke-linecap="round" stroke-linejoin="round" opacity="1" stroke-width="2" stroke="#000000"></path><path d="M270.32 398.05H323.06V341.98H268.66C258.36 341.98 250 350.34 250 360.64V377.82C250.04 389.01 259.13 398.05 270.32 398.05Z" fill="#effaff" opacity="1" stroke-width="2" stroke="#000000"></path><path d="M335.29 515.35L335.29 447.51 335.29 447.51 294.56 447.51 294.56 492.74 319.29 492.74 319.29 515.35 319.38 515.35Z" fill="#effaff" opacity="1" stroke-width="2" stroke="#000000"></path><path d="M394.19 380.06H354.85 355.3C365.82 380.06 374.36 371.52 374.36 361V361C374.36 350.48 365.82 341.94 355.3 341.94H268.7C258.41 341.94 250.04 350.3 250.04 360.6V465.94" stroke="#000000" stroke-width="2" stroke-linecap="round" stroke-linejoin="round" opacity="1" fill="none"></path><path d="M420.23 380.06L400.58 380.06" stroke="#000000" stroke-width="2" stroke-linecap="round" stroke-linejoin="round" opacity="1" fill="none"></path><path d="M494.47 620.93L515.74 599.66H623.02L664.83 641.47C668.43 645.07 674.23 645.07 677.83 641.47L677.83 641.47C681.42 637.88 681.42 632.08 677.83 628.48L640.15 590.8 694.91 536.04C698.87 532.08 701.07 526.73 701.07 521.15V459.11L742.21 417.97C752.55 407.63 752.55 390.85 742.21 380.51L742.21 380.51C731.87 370.17 715.1 370.17 704.76 380.51L614.75 470.53V429.12C614.75 423.14 609.89 418.28 603.91 418.28H591.32C585.34 418.28 580.48 423.14 580.48 429.12V462.25H569.69V408.61H590.6C593.75 408.61 596.31 406.05 596.31 402.9V402.9C596.31 399.76 593.75 397.19 590.6 397.19H536.6L545.23 397.19C550.04 397.24 553.96 393.46 553.96 388.7V388.7C553.96 383.93 550.09 380.06 545.32 380.06H426.89" stroke="#000000" stroke-width="2" stroke-linecap="round" stroke-linejoin="round" opacity="1" fill="none"></path><path d="M250.04 473.9V484.02C250.04 509.46 270.68 530.1 296.13 530.1H296.13 296.13C289.43 530.1 283.99 535.54 283.99 542.24V557.12C283.99 563.82 289.43 569.26 296.13 569.26H407.02V597.05C407.02 603.12 411.92 608.02 417.99 608.02H424.33C430.4 608.02 435.3 603.12 435.3 597.05V597.05H455.71V630.46C455.71 638.55 462.28 645.07 470.33 645.07H470.33C478.42 645.07 484.94 638.51 484.94 630.46V630.37L487.28 628.03 490.96 624.34" stroke="#000000" stroke-width="2" stroke-linecap="round" stroke-linejoin="round" opacity="1" fill="none"></path><path d="M362 619.13V639.22L311.91 639.22C306.79 639.22 302.65 635.09 302.65 629.96L302.65 629.96C302.65 624.84 306.79 620.7 311.91 620.7H316.09V600.65C316.09 594.98 320.68 590.4 326.35 590.4H351.7C357.37 590.4 361.96 594.98 361.96 600.65" fill="#effaff" stroke="#000000" stroke-width="2" stroke-linecap="round" stroke-linejoin="round" opacity="1"></path><path d="M362 605.86L362 613.64" stroke="#000000" stroke-width="2" stroke-linecap="round" stroke-linejoin="round" opacity="1" fill="none"></path><path d="M442.03 657.93H439.65C436.23 657.93 433.44 655.14 433.44 651.72V640.21C433.44 636.8 436.23 634.01 439.65 634.01H442.03C445.45 634.01 448.24 636.8 448.24 640.21V651.72C448.24 655.14 445.45 657.93 442.03 657.93Z" fill="#effaff" stroke="#000000" stroke-width="2" stroke-linecap="round" stroke-linejoin="round" opacity="1"></path><path d="M428.5 629.15H421.44C419.42 629.15 417.8 627.53 417.8 625.51V625.51C417.8 623.49 419.42 621.87 421.44 621.87H428.5C430.52 621.87 432.14 623.49 432.14 625.51V625.51C432.14 627.53 430.52 629.15 428.5 629.15Z" fill="#effaff" stroke="#000000" stroke-width="2" stroke-linecap="round" stroke-linejoin="round" opacity="1"></path><path d="M402.2 626.01L402.2 626.01C399.59 626.01 397.48 623.89 397.48 621.29V619.49C397.48 616.88 399.59 614.77 402.2 614.77L402.2 614.77C404.8 614.77 406.92 616.88 406.92 619.49V621.29C406.92 623.89 404.8 626.01 402.2 626.01Z" fill="#effaff" stroke="#000000" stroke-width="2" stroke-linecap="round" stroke-linejoin="round" opacity="1"></path><path d="M719.54 458.07L713.92 463.69C712.75 464.86 710.91 464.86 709.74 463.69H709.74C708.57 462.52 708.57 460.68 709.74 459.51L718.1 451.15C719.27 449.98 721.11 449.98 722.28 451.15V451.15C723.45 452.32 723.45 454.16 722.28 455.33" fill="#effaff" stroke="#000000" stroke-width="2" stroke-linecap="round" stroke-linejoin="round" opacity="1"></path><path d="M362 639.22L380.88 658.06" stroke="#000000" stroke-width="2" stroke-linecap="round" stroke-linejoin="round" opacity="1" fill="none"></path><path d="M316.77 639.22V642.28C316.77 647.54 312.5 651.81 307.24 651.81H271.76" stroke="#000000" stroke-width="2" stroke-linecap="round" stroke-linejoin="round" opacity="1" fill="none"></path><path d="M263.94 651.81L255.17 651.81" stroke="#000000" stroke-width="2" stroke-linecap="round" stroke-linejoin="round" opacity="1" fill="none"></path><path d="M323.06 341.98L323.06 343.33" stroke="#000000" stroke-width="2" stroke-linecap="round" stroke-linejoin="round" opacity="1" fill="none"></path><path d="M323.06 346.12L323.06 395.26" stroke="#000000" stroke-width="2" stroke-linecap="round" stroke-linejoin="round" stroke-dasharray="6.246 6.246" opacity="1" fill="none"></path><path d="M323.06 396.7L323.06 398.05 321.71 398.05" stroke="#000000" stroke-width="2" stroke-linecap="round" stroke-linejoin="round" opacity="1" fill="none"></path><path d="M319.05 398.04H270.26C259.97 398.04 251.47 390.39 250.17 380.46" stroke="#000000" stroke-width="2" stroke-linecap="round" stroke-linejoin="round" stroke-dasharray="5.874 5.874" opacity="1" fill="none"></path><path d="M250.04 379.12C250 378.67 250 378.22 250 377.77L250.04 379.12" stroke="#000000" stroke-width="2" stroke-linecap="round" stroke-linejoin="round" opacity="1" fill="none"></path><path d="M250.01 381.86V425.43 425.43 429.66C250.01 440.85 259.1 447.51 270.29 447.51H368.89" stroke="#000000" stroke-width="2" stroke-linecap="round" stroke-linejoin="round" stroke-dasharray="6.001 6.001" opacity="1" fill="none"></path><path d="M370.32 447.51L371.67 447.51 371.67 446.16" stroke="#000000" stroke-width="2" stroke-linecap="round" stroke-linejoin="round" opacity="1" fill="none"></path><path d="M371.67 443.42L371.67 411.94" stroke="#000000" stroke-width="2" stroke-linecap="round" stroke-linejoin="round" stroke-dasharray="6.084 6.084" opacity="1" fill="none"></path><path d="M371.67 410.59L371.67 409.24 370.32 409.24" stroke="#000000" stroke-width="2" stroke-linecap="round" stroke-linejoin="round" opacity="1" fill="none"></path><path d="M367.62 409.24L347.43 409.24" stroke="#000000" stroke-width="2" stroke-linecap="round" stroke-linejoin="round" stroke-dasharray="5.99 5.99" opacity="1" fill="none"></path><path d="M346.08 409.24L344.73 409.24 344.73 407.9" stroke="#000000" stroke-width="2" stroke-linecap="round" stroke-linejoin="round" opacity="1" fill="none"></path><path d="M344.78 405.06L344.78 344.72" stroke="#000000" stroke-width="2" stroke-linecap="round" stroke-linejoin="round" stroke-dasharray="6.243 6.243" opacity="1" fill="none"></path><path d="M344.77 343.33L344.77 341.98 344.77 341.98" stroke="#000000" stroke-width="2" stroke-linecap="round" stroke-linejoin="round" opacity="1" fill="none"></path><path d="M323.11 398.05L323.11 399.4" stroke="#000000" stroke-width="2" stroke-linecap="round" stroke-linejoin="round" opacity="1" fill="none"></path><path d="M323.11 402.15L323.11 444.78" stroke="#000000" stroke-width="2" stroke-linecap="round" stroke-linejoin="round" stroke-dasharray="6.118 6.118" opacity="1" fill="none"></path><path d="M323.06 446.16L323.06 447.51" stroke="#000000" stroke-width="2" stroke-linecap="round" stroke-linejoin="round" opacity="1" fill="none"></path><path d="M294.56 447.51L294.56 448.86" stroke="#000000" stroke-width="2" stroke-linecap="round" stroke-linejoin="round" opacity="1" fill="none"></path><path d="M294.56 451.69L294.56 489.95" stroke="#000000" stroke-width="2" stroke-linecap="round" stroke-linejoin="round" stroke-dasharray="6.307 6.307" opacity="1" fill="none"></path><path d="M294.56 491.39L294.56 492.74 295.91 492.74" stroke="#000000" stroke-width="2" stroke-linecap="round" stroke-linejoin="round" opacity="1" fill="none"></path><path d="M298.33 492.74L316.72 492.74" stroke="#000000" stroke-width="2" stroke-linecap="round" stroke-linejoin="round" stroke-dasharray="5.445 5.445" opacity="1" fill="none"></path><path d="M317.94 492.74L319.29 492.74 319.29 494.09" stroke="#000000" stroke-width="2" stroke-linecap="round" stroke-linejoin="round" opacity="1" fill="none"></path><path d="M319.29 496.83L319.29 566.61" stroke="#000000" stroke-width="2" stroke-linecap="round" stroke-linejoin="round" stroke-dasharray="6.089 6.089" opacity="1" fill="none"></path><path d="M319.27 567.92L319.27 569.26" stroke="#000000" stroke-width="2" stroke-linecap="round" stroke-linejoin="round" opacity="1" fill="none"></path><path d="M319.38 515.35L320.73 515.35" stroke="#000000" stroke-width="2" stroke-linecap="round" stroke-linejoin="round" opacity="1" fill="none"></path><path d="M323.38 515.35L332.6 515.35" stroke="#000000" stroke-width="2" stroke-linecap="round" stroke-linejoin="round" stroke-dasharray="5.865 5.865" opacity="1" fill="none"></path><path d="M333.94 515.35L335.29 515.35 335.29 514.01" stroke="#000000" stroke-width="2" stroke-linecap="round" stroke-linejoin="round" opacity="1" fill="none"></path><path d="M335.29 511.4L335.29 450.16" stroke="#000000" stroke-width="2" stroke-linecap="round" stroke-linejoin="round" stroke-dasharray="5.796 5.796" opacity="1" fill="none"></path><path d="M335.29 448.86L335.29 447.51" stroke="#000000" stroke-width="2" stroke-linecap="round" stroke-linejoin="round" opacity="1" fill="none"></path><path d="M371.67 447.51L373.02 447.51" stroke="#000000" stroke-width="2" stroke-linecap="round" stroke-linejoin="round" opacity="1" fill="none"></path><path d="M375.71 447.51L433.89 447.51" stroke="#000000" stroke-width="2" stroke-linecap="round" stroke-linejoin="round" stroke-dasharray="6.019 6.019" opacity="1" fill="none"></path><path d="M435.24 447.51L436.59 447.51 436.59 446.16" stroke="#000000" stroke-width="2" stroke-linecap="round" stroke-linejoin="round" opacity="1" fill="none"></path><path d="M436.59 443.42L436.59 411.94" stroke="#000000" stroke-width="2" stroke-linecap="round" stroke-linejoin="round" stroke-dasharray="6.084 6.084" opacity="1" fill="none"></path><path d="M436.59 410.59L436.59 409.24 435.24 409.24" stroke="#000000" stroke-width="2" stroke-linecap="round" stroke-linejoin="round" opacity="1" fill="none"></path><path d="M432.55 409.24L374.36 409.24" stroke="#000000" stroke-width="2" stroke-linecap="round" stroke-linejoin="round" stroke-dasharray="6.019 6.019" opacity="1" fill="none"></path><path d="M373.02 409.24L371.67 409.24" stroke="#000000" stroke-width="2" stroke-linecap="round" stroke-linejoin="round" opacity="1" fill="none"></path><path d="M378.14 447.51L378.14 448.86" stroke="#000000" stroke-width="2" stroke-linecap="round" stroke-linejoin="round" opacity="1" fill="none"></path><path d="M378.14 451.51L378.14 566.66" stroke="#000000" stroke-width="2" stroke-linecap="round" stroke-linejoin="round" stroke-dasharray="5.889 5.889" opacity="1" fill="none"></path><path d="M378.14 568.01L378.14 569.35" stroke="#000000" stroke-width="2" stroke-linecap="round" stroke-linejoin="round" opacity="1" fill="none"></path><path d="M335.29 504.56L336.64 504.56" stroke="#000000" stroke-width="2" stroke-linecap="round" stroke-linejoin="round" opacity="1" fill="none"></path><path d="M339.38 504.56L378.14 504.56 448.46 504.56" stroke="#000000" stroke-width="2" stroke-linecap="round" stroke-linejoin="round" stroke-dasharray="6.141 6.141" opacity="1" fill="none"></path><path d="M449.81 504.56L451.16 504.56 451.16 503.21" stroke="#000000" stroke-width="2" stroke-linecap="round" stroke-linejoin="round" opacity="1" fill="none"></path><path d="M451.16 500.47L451.16 474.3" stroke="#000000" stroke-width="2" stroke-linecap="round" stroke-linejoin="round" stroke-dasharray="6.121 6.121" opacity="1" fill="none"></path><path d="M451.16 472.96L451.16 471.61 449.81 471.61" stroke="#000000" stroke-width="2" stroke-linecap="round" stroke-linejoin="round" opacity="1" fill="none"></path><path d="M447.43 471.61L439.11 471.61" stroke="#000000" stroke-width="2" stroke-linecap="round" stroke-linejoin="round" stroke-dasharray="5.286 5.286" opacity="1" fill="none"></path><path d="M437.94 471.61L436.59 471.61 436.59 470.26" stroke="#000000" stroke-width="2" stroke-linecap="round" stroke-linejoin="round" opacity="1" fill="none"></path><path d="M436.59 467.2L436.59 450.38" stroke="#000000" stroke-width="2" stroke-linecap="round" stroke-linejoin="round" stroke-dasharray="6.799 6.799" opacity="1" fill="none"></path><path d="M436.59 448.86L436.59 447.51 437.94 447.51" stroke="#000000" stroke-width="2" stroke-linecap="round" stroke-linejoin="round" opacity="1" fill="none"></path><path d="M440.59 447.51L539.2 447.51" stroke="#000000" stroke-width="2" stroke-linecap="round" stroke-linejoin="round" stroke-dasharray="5.849 5.849" opacity="1" fill="none"></path><path d="M540.5 447.51L541.85 447.51 541.85 448.86" stroke="#000000" stroke-width="2" stroke-linecap="round" stroke-linejoin="round" opacity="1" fill="none"></path><path d="M541.85 450.52L541.85 453.08" stroke="#000000" stroke-width="2" stroke-linecap="round" stroke-linejoin="round" stroke-dasharray="3.758 3.758" opacity="1" fill="none"></path><path d="M541.85 453.88L541.85 455.23 543.2 455.23" stroke="#000000" stroke-width="2" stroke-linecap="round" stroke-linejoin="round" opacity="1" fill="none"></path><path d="M545.36 455.23L548.55 455.23" stroke="#000000" stroke-width="2" stroke-linecap="round" stroke-linejoin="round" stroke-dasharray="4.738 4.738" opacity="1" fill="none"></path><path d="M549.57 455.23L550.92 455.23" stroke="#000000" stroke-width="2" stroke-linecap="round" stroke-linejoin="round" opacity="1" fill="none"></path><path d="M406.99 569.35L408.34 569.35" stroke="#000000" stroke-width="2" stroke-linecap="round" stroke-linejoin="round" opacity="1" fill="none"></path><path d="M411.01 569.35H421.53C427.73 569.35 432.77 564.32 432.77 558.11V507.26" stroke="#000000" stroke-width="2" stroke-linecap="round" stroke-linejoin="round" stroke-dasharray="5.959 5.959" opacity="1" fill="none"></path><path d="M432.77 505.91L432.77 504.56" stroke="#000000" stroke-width="2" stroke-linecap="round" stroke-linejoin="round" opacity="1" fill="none"></path><path d="M515.69 599.63L515.69 598.28" stroke="#000000" stroke-width="2" stroke-linecap="round" stroke-linejoin="round" opacity="1" fill="none"></path><path d="M515.69 595.57L515.69 558.83" stroke="#000000" stroke-width="2" stroke-linecap="round" stroke-linejoin="round" stroke-dasharray="6.052 6.052" opacity="1" fill="none"></path><path d="M515.73 557.48L515.73 556.14 514.38 556.14" stroke="#000000" stroke-width="2" stroke-linecap="round" stroke-linejoin="round" opacity="1" fill="none"></path><path d="M511.68 556.1L464.24 556.1" stroke="#000000" stroke-width="2" stroke-linecap="round" stroke-linejoin="round" stroke-dasharray="6.027 6.027" opacity="1" fill="none"></path><path d="M462.9 556.14L461.55 556.14 461.55 554.79" stroke="#000000" stroke-width="2" stroke-linecap="round" stroke-linejoin="round" opacity="1" fill="none"></path><path d="M461.55 551.91L461.55 524.66" stroke="#000000" stroke-width="2" stroke-linecap="round" stroke-linejoin="round" stroke-dasharray="6.378 6.378" opacity="1" fill="none"></path><path d="M461.55 523.22L461.55 521.87 460.2 521.87" stroke="#000000" stroke-width="2" stroke-linecap="round" stroke-linejoin="round" opacity="1" fill="none"></path><path d="M457.27 521.87L435.6 521.87" stroke="#000000" stroke-width="2" stroke-linecap="round" stroke-linejoin="round" stroke-dasharray="6.437 6.437" opacity="1" fill="none"></path><path d="M434.12 521.87L432.77 521.87" stroke="#000000" stroke-width="2" stroke-linecap="round" stroke-linejoin="round" opacity="1" fill="none"></path><path d="M451.16 504.56L452.51 504.56" stroke="#000000" stroke-width="2" stroke-linecap="round" stroke-linejoin="round" opacity="1" fill="none"></path><path d="M455.39 504.56L499.54 504.56" stroke="#000000" stroke-width="2" stroke-linecap="round" stroke-linejoin="round" stroke-dasharray="6.34 6.34" opacity="1" fill="none"></path><path d="M500.98 504.56L502.33 504.56 502.33 505.91" stroke="#000000" stroke-width="2" stroke-linecap="round" stroke-linejoin="round" opacity="1" fill="none"></path><path d="M502.33 508.48L502.33 553.48" stroke="#000000" stroke-width="2" stroke-linecap="round" stroke-linejoin="round" stroke-dasharray="5.721 5.721" opacity="1" fill="none"></path><path d="M502.33 554.71L502.33 556.06" stroke="#000000" stroke-width="2" stroke-linecap="round" stroke-linejoin="round" opacity="1" fill="none"></path><path d="M502.33 504.56L502.33 503.21" stroke="#000000" stroke-width="2" stroke-linecap="round" stroke-linejoin="round" opacity="1" fill="none"></path><path d="M502.33 500.52L502.33 382.76" stroke="#000000" stroke-width="2" stroke-linecap="round" stroke-linejoin="round" stroke-dasharray="6.02 6.02" opacity="1" fill="none"></path><path d="M502.33 381.41L502.33 380.06" stroke="#000000" stroke-width="2" stroke-linecap="round" stroke-linejoin="round" opacity="1" fill="none"></path><path d="M436.59 409.24L436.59 407.9" stroke="#000000" stroke-width="2" stroke-linecap="round" stroke-linejoin="round" opacity="1" fill="none"></path><path d="M436.59 404.93L436.59 382.9" stroke="#000000" stroke-width="2" stroke-linecap="round" stroke-linejoin="round" stroke-dasharray="6.542 6.542" opacity="1" fill="none"></path><path d="M436.59 381.41L436.59 380.06" stroke="#000000" stroke-width="2" stroke-linecap="round" stroke-linejoin="round" opacity="1" fill="none"></path><path d="M436.59 412.62L437.94 412.62" stroke="#000000" stroke-width="2" stroke-linecap="round" stroke-linejoin="round" opacity="1" fill="none"></path><path d="M440.68 412.62L499.63 412.62" stroke="#000000" stroke-width="2" stroke-linecap="round" stroke-linejoin="round" stroke-dasharray="6.096 6.096" opacity="1" fill="none"></path><path d="M500.98 412.62L502.33 412.62" stroke="#000000" stroke-width="2" stroke-linecap="round" stroke-linejoin="round" opacity="1" fill="none"></path><path d="M451.16 483.66L452.51 483.66" stroke="#000000" stroke-width="2" stroke-linecap="round" stroke-linejoin="round" opacity="1" fill="none"></path><path d="M455.39 483.66L499.54 483.66" stroke="#000000" stroke-width="2" stroke-linecap="round" stroke-linejoin="round" stroke-dasharray="6.34 6.34" opacity="1" fill="none"></path><path d="M500.98 483.66L502.33 483.66" stroke="#000000" stroke-width="2" stroke-linecap="round" stroke-linejoin="round" opacity="1" fill="none"></path><path d="M515.73 568.41L517.07 568.41" stroke="#000000" stroke-width="2" stroke-linecap="round" stroke-linejoin="round" opacity="1" fill="none"></path><path d="M519.77 568.41L545.31 568.41" stroke="#000000" stroke-width="2" stroke-linecap="round" stroke-linejoin="round" stroke-dasharray="5.977 5.977" opacity="1" fill="none"></path><path d="M546.61 568.41L547.96 568.41 547.96 569.76" stroke="#000000" stroke-width="2" stroke-linecap="round" stroke-linejoin="round" opacity="1" fill="none"></path><path d="M547.96 572.55L547.96 588.01" stroke="#000000" stroke-width="2" stroke-linecap="round" stroke-linejoin="round" stroke-dasharray="6.253 6.253" opacity="1" fill="none"></path><path d="M547.96 589.41L547.96 590.76 549.31 590.76" stroke="#000000" stroke-width="2" stroke-linecap="round" stroke-linejoin="round" opacity="1" fill="none"></path><path d="M551.92 590.76L561 590.76" stroke="#000000" stroke-width="2" stroke-linecap="round" stroke-linejoin="round" stroke-dasharray="5.758 5.758" opacity="1" fill="none"></path><path d="M562.26 590.76L563.61 590.76 563.61 592.1" stroke="#000000" stroke-width="2" stroke-linecap="round" stroke-linejoin="round" opacity="1" fill="none"></path><path d="M563.61 594.17L563.61 597.28" stroke="#000000" stroke-width="2" stroke-linecap="round" stroke-linejoin="round" stroke-dasharray="4.58 4.58" opacity="1" fill="none"></path><path d="M563.61 598.31L563.61 599.66" stroke="#000000" stroke-width="2" stroke-linecap="round" stroke-linejoin="round" opacity="1" fill="none"></path><path d="M547.96 568.41L547.96 567.06" stroke="#000000" stroke-width="2" stroke-linecap="round" stroke-linejoin="round" opacity="1" fill="none"></path><path d="M547.96 564.45L547.96 544.85" stroke="#000000" stroke-width="2" stroke-linecap="round" stroke-linejoin="round" stroke-dasharray="5.81 5.81" opacity="1" fill="none"></path><path d="M547.96 543.55L547.96 542.2 549.31 542.2" stroke="#000000" stroke-width="2" stroke-linecap="round" stroke-linejoin="round" opacity="1" fill="none"></path><path d="M551.96 542.2L618.55 542.2" stroke="#000000" stroke-width="2" stroke-linecap="round" stroke-linejoin="round" stroke-dasharray="5.811 5.811" opacity="1" fill="none"></path><path d="M619.86 542.2L621.21 542.2 622.2 543.14" stroke="#000000" stroke-width="2" stroke-linecap="round" stroke-linejoin="round" opacity="1" fill="none"></path><path d="M624.04 545.03L653.08 574.07" stroke="#000000" stroke-width="2" stroke-linecap="round" stroke-linejoin="round" stroke-dasharray="5.895 5.895" opacity="1" fill="none"></path><path d="M654.03 575.02L654.97 575.96" stroke="#000000" stroke-width="2" stroke-linecap="round" stroke-linejoin="round" opacity="1" fill="none"></path><path d="M621.21 542.2L622.56 542.2" stroke="#000000" stroke-width="2" stroke-linecap="round" stroke-linejoin="round" opacity="1" fill="none"></path><path d="M625.3 542.2H657.67C662.62 542.2 667.34 544.18 670.84 547.64L675.16 551.95" stroke="#000000" stroke-width="2" stroke-linecap="round" stroke-linejoin="round" stroke-dasharray="6.056 6.056" opacity="1" fill="none"></path><path d="M676.1 552.94L677.05 553.89" stroke="#000000" stroke-width="2" stroke-linecap="round" stroke-linejoin="round" opacity="1" fill="none"></path><path d="M575.57 599.66L575.57 598.31" stroke="#000000" stroke-width="2" stroke-linecap="round" stroke-linejoin="round" opacity="1" fill="none"></path><path d="M575.57 595.7L575.57 544.85" stroke="#000000" stroke-width="2" stroke-linecap="round" stroke-linejoin="round" stroke-dasharray="5.8 5.8" opacity="1" fill="none"></path><path d="M575.57 543.55L575.57 542.2" stroke="#000000" stroke-width="2" stroke-linecap="round" stroke-linejoin="round" opacity="1" fill="none"></path><path d="M587.84 599.66L587.84 598.31" stroke="#000000" stroke-width="2" stroke-linecap="round" stroke-linejoin="round" opacity="1" fill="none"></path><path d="M587.84 596.24L587.84 593.14" stroke="#000000" stroke-width="2" stroke-linecap="round" stroke-linejoin="round" stroke-dasharray="4.58 4.58" opacity="1" fill="none"></path><path d="M587.84 592.1L587.84 590.76 589.19 590.76" stroke="#000000" stroke-width="2" stroke-linecap="round" stroke-linejoin="round" opacity="1" fill="none"></path><path d="M591.77 590.77L637.5 590.77" stroke="#000000" stroke-width="2" stroke-linecap="round" stroke-linejoin="round" stroke-dasharray="5.807 5.807" opacity="1" fill="none"></path><path d="M638.84 590.8L640.19 590.8" stroke="#000000" stroke-width="2" stroke-linecap="round" stroke-linejoin="round" opacity="1" fill="none"></path><path d="M603.81 542.2L603.81 543.55" stroke="#000000" stroke-width="2" stroke-linecap="round" stroke-linejoin="round" opacity="1" fill="none"></path><path d="M603.81 546.24L603.81 588.06" stroke="#000000" stroke-width="2" stroke-linecap="round" stroke-linejoin="round" stroke-dasharray="6.004 6.004" opacity="1" fill="none"></path><path d="M603.81 589.41L603.81 590.76" stroke="#000000" stroke-width="2" stroke-linecap="round" stroke-linejoin="round" opacity="1" fill="none"></path><path d="M502.34 522.86L503.69 522.86" stroke="#000000" stroke-width="2" stroke-linecap="round" stroke-linejoin="round" opacity="1" fill="none"></path><path d="M506.24 522.86L698.32 522.86" stroke="#000000" stroke-width="2" stroke-linecap="round" stroke-linejoin="round" stroke-dasharray="5.975 5.975" opacity="1" fill="none"></path><path d="M699.67 522.86L701.01 522.86" stroke="#000000" stroke-width="2" stroke-linecap="round" stroke-linejoin="round" opacity="1" fill="none"></path><path d="M557.5 542.29L557.5 540.94" stroke="#000000" stroke-width="2" stroke-linecap="round" stroke-linejoin="round" opacity="1" fill="none"></path><path d="M557.5 538.2L557.5 506.63" stroke="#000000" stroke-width="2" stroke-linecap="round" stroke-linejoin="round" stroke-dasharray="6.102 6.102" opacity="1" fill="none"></path><path d="M557.5 505.28L557.5 503.93 556.15 503.93" stroke="#000000" stroke-width="2" stroke-linecap="round" stroke-linejoin="round" opacity="1" fill="none"></path><path d="M553.54 503.93L544.5 503.93" stroke="#000000" stroke-width="2" stroke-linecap="round" stroke-linejoin="round" stroke-dasharray="5.752 5.752" opacity="1" fill="none"></path><path d="M543.2 503.93L541.85 503.93 541.85 502.59" stroke="#000000" stroke-width="2" stroke-linecap="round" stroke-linejoin="round" opacity="1" fill="none"></path><path d="M541.85 499.66L541.85 472.06" stroke="#000000" stroke-width="2" stroke-linecap="round" stroke-linejoin="round" stroke-dasharray="6.463 6.463" opacity="1" fill="none"></path><path d="M541.85 470.62L541.85 469.27 543.2 469.27" stroke="#000000" stroke-width="2" stroke-linecap="round" stroke-linejoin="round" opacity="1" fill="none"></path><path d="M545.36 469.27L548.55 469.27" stroke="#000000" stroke-width="2" stroke-linecap="round" stroke-linejoin="round" stroke-dasharray="4.738 4.738" opacity="1" fill="none"></path><path d="M549.58 469.27L550.93 469.27 550.93 467.92" stroke="#000000" stroke-width="2" stroke-linecap="round" stroke-linejoin="round" opacity="1" fill="none"></path><path d="M550.93 465.67L550.93 457.76" stroke="#000000" stroke-width="2" stroke-linecap="round" stroke-linejoin="round" stroke-dasharray="5.029 5.029" opacity="1" fill="none"></path><path d="M550.93 456.58L550.93 455.23 552.28 455.23" stroke="#000000" stroke-width="2" stroke-linecap="round" stroke-linejoin="round" opacity="1" fill="none"></path><path d="M554.54 455.23L567.18 455.23" stroke="#000000" stroke-width="2" stroke-linecap="round" stroke-linejoin="round" stroke-dasharray="5.12 5.12" opacity="1" fill="none"></path><path d="M568.41 455.2L569.76 455.2" stroke="#000000" stroke-width="2" stroke-linecap="round" stroke-linejoin="round" opacity="1" fill="none"></path><path d="M502.33 474.75L503.68 474.75" stroke="#000000" stroke-width="2" stroke-linecap="round" stroke-linejoin="round" opacity="1" fill="none"></path><path d="M506.51 474.75L539.11 474.75" stroke="#000000" stroke-width="2" stroke-linecap="round" stroke-linejoin="round" stroke-dasharray="6.301 6.301" opacity="1" fill="none"></path><path d="M540.5 474.75L541.85 474.75" stroke="#000000" stroke-width="2" stroke-linecap="round" stroke-linejoin="round" opacity="1" fill="none"></path><path d="M541.85 447.51L541.85 446.16" stroke="#000000" stroke-width="2" stroke-linecap="round" stroke-linejoin="round" opacity="1" fill="none"></path><path d="M541.85 443.64L541.85 434.87" stroke="#000000" stroke-width="2" stroke-linecap="round" stroke-linejoin="round" stroke-dasharray="5.569 5.569" opacity="1" fill="none"></path><path d="M541.85 433.61L541.85 432.26 540.5 432.26" stroke="#000000" stroke-width="2" stroke-linecap="round" stroke-linejoin="round" opacity="1" fill="none"></path><path d="M538.21 432.26L530.25 432.26" stroke="#000000" stroke-width="2" stroke-linecap="round" stroke-linejoin="round" stroke-dasharray="5.068 5.068" opacity="1" fill="none"></path><path d="M529.12 432.26L527.78 432.26 527.78 430.92" stroke="#000000" stroke-width="2" stroke-linecap="round" stroke-linejoin="round" opacity="1" fill="none"></path><path d="M527.78 428.44L527.78 399.8" stroke="#000000" stroke-width="2" stroke-linecap="round" stroke-linejoin="round" stroke-dasharray="5.541 5.541" opacity="1" fill="none"></path><path d="M527.78 398.54L527.78 397.19 529.12 397.19" stroke="#000000" stroke-width="2" stroke-linecap="round" stroke-linejoin="round" opacity="1" fill="none"></path><path d="M531.37 397.15L534.79 397.15" stroke="#000000" stroke-width="2" stroke-linecap="round" stroke-linejoin="round" stroke-dasharray="5.038 5.038" opacity="1" fill="none"></path><path d="M535.91 397.16L537.26 397.15" stroke="#000000" stroke-width="2" stroke-linecap="round" stroke-linejoin="round" opacity="1" fill="none"></path><path d="M574.63 462.3L574.63 463.65" stroke="#000000" stroke-width="2" stroke-linecap="round" stroke-linejoin="round" opacity="1" fill="none"></path><path d="M574.63 466.39L574.63 520.12" stroke="#000000" stroke-width="2" stroke-linecap="round" stroke-linejoin="round" stroke-dasharray="6.128 6.128" opacity="1" fill="none"></path><path d="M574.63 521.51L574.63 522.86" stroke="#000000" stroke-width="2" stroke-linecap="round" stroke-linejoin="round" opacity="1" fill="none"></path><path d="M580.52 462.3L581.86 462.3" stroke="#000000" stroke-width="2" stroke-linecap="round" stroke-linejoin="round" opacity="1" fill="none"></path><path d="M584.74 462.3L611.99 462.3" stroke="#000000" stroke-width="2" stroke-linecap="round" stroke-linejoin="round" stroke-dasharray="6.378 6.378" opacity="1" fill="none"></path><path d="M613.43 462.3L614.78 462.3" stroke="#000000" stroke-width="2" stroke-linecap="round" stroke-linejoin="round" opacity="1" fill="none"></path><path d="M574.63 503.71L575.97 503.71" stroke="#000000" stroke-width="2" stroke-linecap="round" stroke-linejoin="round" opacity="1" fill="none"></path><path d="M578.54 503.71L597.78 503.71" stroke="#000000" stroke-width="2" stroke-linecap="round" stroke-linejoin="round" stroke-dasharray="5.709 5.709" opacity="1" fill="none"></path><path d="M599.09 503.71L600.43 503.71 600.43 502.36" stroke="#000000" stroke-width="2" stroke-linecap="round" stroke-linejoin="round" opacity="1" fill="none"></path><path d="M600.43 499.8L600.43 464.91" stroke="#000000" stroke-width="2" stroke-linecap="round" stroke-linejoin="round" stroke-dasharray="5.743 5.743" opacity="1" fill="none"></path><path d="M600.43 463.65L600.43 462.3" stroke="#000000" stroke-width="2" stroke-linecap="round" stroke-linejoin="round" opacity="1" fill="none"></path><path d="M600.43 493.14L601.78 493.14" stroke="#000000" stroke-width="2" stroke-linecap="round" stroke-linejoin="round" opacity="1" fill="none"></path><path d="M604.44 493.14L635.32 493.14" stroke="#000000" stroke-width="2" stroke-linecap="round" stroke-linejoin="round" stroke-dasharray="5.975 5.975" opacity="1" fill="none"></path><path d="M636.67 493.14L638.02 493.14 638.02 491.79" stroke="#000000" stroke-width="2" stroke-linecap="round" stroke-linejoin="round" opacity="1" fill="none"></path><path d="M638.02 489.28L638.02 449.89" stroke="#000000" stroke-width="2" stroke-linecap="round" stroke-linejoin="round" stroke-dasharray="5.65 5.65" opacity="1" fill="none"></path><path d="M638.02 448.63L638.02 447.28" stroke="#000000" stroke-width="2" stroke-linecap="round" stroke-linejoin="round" opacity="1" fill="none"></path><path d="M610.46 542.2L611.4 541.25" stroke="#000000" stroke-width="2" stroke-linecap="round" stroke-linejoin="round" opacity="1" fill="none"></path><path d="M613.25 539.41L629.79 522.86 629.79 495.8" stroke="#000000" stroke-width="2" stroke-linecap="round" stroke-linejoin="round" stroke-dasharray="5.755 5.755" opacity="1" fill="none"></path><path d="M629.79 494.49L629.79 493.14" stroke="#000000" stroke-width="2" stroke-linecap="round" stroke-linejoin="round" opacity="1" fill="none"></path><path d="M629.79 507.08L631.14 507.08" stroke="#000000" stroke-width="2" stroke-linecap="round" stroke-linejoin="round" opacity="1" fill="none"></path><path d="M633.93 507.08L649.35 507.08" stroke="#000000" stroke-width="2" stroke-linecap="round" stroke-linejoin="round" stroke-dasharray="6.228 6.228" opacity="1" fill="none"></path><path d="M650.75 507.08L652.1 507.08 652.1 505.73" stroke="#000000" stroke-width="2" stroke-linecap="round" stroke-linejoin="round" opacity="1" fill="none"></path><path d="M652.1 503.03V494.72C652.1 490.72 655.33 487.43 659.38 487.43H698.41" stroke="#000000" stroke-width="2" stroke-linecap="round" stroke-linejoin="round" stroke-dasharray="6.08 6.08" opacity="1" fill="none"></path><path d="M699.75 487.43L701.1 487.43" stroke="#000000" stroke-width="2" stroke-linecap="round" stroke-linejoin="round" opacity="1" fill="none"></path><path d="M638.02 475.83L639.37 475.83" stroke="#000000" stroke-width="2" stroke-linecap="round" stroke-linejoin="round" opacity="1" fill="none"></path><path d="M642.02 475.83L698.45 475.83" stroke="#000000" stroke-width="2" stroke-linecap="round" stroke-linejoin="round" stroke-dasharray="5.84 5.84" opacity="1" fill="none"></path><path d="M699.75 475.83L701.1 475.83" stroke="#000000" stroke-width="2" stroke-linecap="round" stroke-linejoin="round" opacity="1" fill="none"></path><path d="M660.32 487.43L660.32 486.08" stroke="#000000" stroke-width="2" stroke-linecap="round" stroke-linejoin="round" opacity="1" fill="none"></path><path d="M660.32 483.12L660.32 478.67" stroke="#000000" stroke-width="2" stroke-linecap="round" stroke-linejoin="round" stroke-dasharray="6.619 6.619" opacity="1" fill="none"></path><path d="M660.32 477.18L660.32 475.83" stroke="#000000" stroke-width="2" stroke-linecap="round" stroke-linejoin="round" opacity="1" fill="none"></path><path d="M688.42 487.43L688.42 486.08" stroke="#000000" stroke-width="2" stroke-linecap="round" stroke-linejoin="round" opacity="1" fill="none"></path><path d="M688.42 483.12L688.42 478.67" stroke="#000000" stroke-width="2" stroke-linecap="round" stroke-linejoin="round" stroke-dasharray="6.619 6.619" opacity="1" fill="none"></path><path d="M688.42 477.18L688.42 475.83" stroke="#000000" stroke-width="2" stroke-linecap="round" stroke-linejoin="round" opacity="1" fill="none"></path><path d="M701.1 459.11L700.16 458.16" stroke="#000000" stroke-width="2" stroke-linecap="round" stroke-linejoin="round" opacity="1" fill="none"></path><path d="M698.54 456.5L696.07 454.03" stroke="#000000" stroke-width="2" stroke-linecap="round" stroke-linejoin="round" stroke-dasharray="5.184 5.184" opacity="1" fill="none"></path><path d="M695.21 453.22L694.27 452.27 692.92 452.27" stroke="#000000" stroke-width="2" stroke-linecap="round" stroke-linejoin="round" opacity="1" fill="none"></path><path d="M690.09 452.27L640.81 452.27" stroke="#000000" stroke-width="2" stroke-linecap="round" stroke-linejoin="round" stroke-dasharray="6.267 6.267" opacity="1" fill="none"></path><path d="M639.37 452.27L638.02 452.27" stroke="#000000" stroke-width="2" stroke-linecap="round" stroke-linejoin="round" opacity="1" fill="none"></path><path d="M683.88 475.83L683.88 474.48" stroke="#000000" stroke-width="2" stroke-linecap="round" stroke-linejoin="round" opacity="1" fill="none"></path><path d="M683.88 471.47L683.88 455.11" stroke="#000000" stroke-width="2" stroke-linecap="round" stroke-linejoin="round" stroke-dasharray="6.625 6.625" opacity="1" fill="none"></path><path d="M683.88 453.62L683.88 452.27" stroke="#000000" stroke-width="2" stroke-linecap="round" stroke-linejoin="round" opacity="1" fill="none"></path><path d="M694.27 452.27L694.27 450.92" stroke="#000000" stroke-width="2" stroke-linecap="round" stroke-linejoin="round" opacity="1" fill="none"></path><path d="M694.27 448.14L694.27 393.78" stroke="#000000" stroke-width="2" stroke-linecap="round" stroke-linejoin="round" stroke-dasharray="6.199 6.199" opacity="1" fill="none"></path><path d="M694.27 392.38L694.27 391.03" stroke="#000000" stroke-width="2" stroke-linecap="round" stroke-linejoin="round" opacity="1" fill="none"></path><path d="M694.27 434.06L695.62 434.06" stroke="#000000" stroke-width="2" stroke-linecap="round" stroke-linejoin="round" opacity="1" fill="none"></path><path d="M698.27 434.06L723.49 434.06" stroke="#000000" stroke-width="2" stroke-linecap="round" stroke-linejoin="round" stroke-dasharray="5.904 5.904" opacity="1" fill="none"></path><path d="M724.8 434.06L726.15 434.06" stroke="#000000" stroke-width="2" stroke-linecap="round" stroke-linejoin="round" opacity="1" fill="none"></path><path d="M716.03 444.22L716.03 442.88" stroke="#000000" stroke-width="2" stroke-linecap="round" stroke-linejoin="round" opacity="1" fill="none"></path><path d="M716.03 440.4L716.03 436.67" stroke="#000000" stroke-width="2" stroke-linecap="round" stroke-linejoin="round" stroke-dasharray="5.522 5.522" opacity="1" fill="none"></path><path d="M716.03 435.41L716.03 434.06" stroke="#000000" stroke-width="2" stroke-linecap="round" stroke-linejoin="round" opacity="1" fill="none"></path><path d="M694.27 421.38L695.62 421.38" stroke="#000000" stroke-width="2" stroke-linecap="round" stroke-linejoin="round" opacity="1" fill="none"></path><path d="M698.41 421.38L735.9 421.38" stroke="#000000" stroke-width="2" stroke-linecap="round" stroke-linejoin="round" stroke-dasharray="6.181 6.181" opacity="1" fill="none"></path><path d="M737.3 421.38L738.65 421.38" stroke="#000000" stroke-width="2" stroke-linecap="round" stroke-linejoin="round" opacity="1" fill="none"></path><path d="M703.13 421.38L703.13 420.04" stroke="#000000" stroke-width="2" stroke-linecap="round" stroke-linejoin="round" opacity="1" fill="none"></path><path d="M703.13 417.25L703.13 384.96" stroke="#000000" stroke-width="2" stroke-linecap="round" stroke-linejoin="round" stroke-dasharray="6.244 6.244" opacity="1" fill="none"></path><path d="M703.13 383.53L703.13 382.18" stroke="#000000" stroke-width="2" stroke-linecap="round" stroke-linejoin="round" opacity="1" fill="none"></path><path d="M712.21 421.38L712.21 420.04" stroke="#000000" stroke-width="2" stroke-linecap="round" stroke-linejoin="round" opacity="1" fill="none"></path><path d="M712.21 417.47L712.21 377.91" stroke="#000000" stroke-width="2" stroke-linecap="round" stroke-linejoin="round" stroke-dasharray="5.679 5.679" opacity="1" fill="none"></path><path d="M712.21 376.65L712.21 375.3" stroke="#000000" stroke-width="2" stroke-linecap="round" stroke-linejoin="round" opacity="1" fill="none"></path><path d="M569.77 419.54L568.42 419.54" stroke="#000000" stroke-width="2" stroke-linecap="round" stroke-linejoin="round" opacity="1" fill="none"></path><path d="M565.59 419.54H561.68C558.26 419.54 555.52 416.8 555.52 413.38V399.94" stroke="#000000" stroke-width="2" stroke-linecap="round" stroke-linejoin="round" stroke-dasharray="6.322 6.322" opacity="1" fill="none"></path><path d="M555.52 398.54L555.52 397.19" stroke="#000000" stroke-width="2" stroke-linecap="round" stroke-linejoin="round" opacity="1" fill="none"></path></g></svg>